<?xml version="1.0" encoding="UTF-8" standalone="no"?>
<svg
   xmlns:dc="http://purl.org/dc/elements/1.1/"
   xmlns:cc="http://creativecommons.org/ns#"
   xmlns:rdf="http://www.w3.org/1999/02/22-rdf-syntax-ns#"
   xmlns:svg="http://www.w3.org/2000/svg"
   xmlns="http://www.w3.org/2000/svg"
   xmlns:sodipodi="http://sodipodi.sourceforge.net/DTD/sodipodi-0.dtd"
   xmlns:inkscape="http://www.inkscape.org/namespaces/inkscape"
   viewBox="0 0 24 24"
   version="1.1"
   id="svg4"
   sodipodi:docname="logo.svg"
   inkscape:version="0.92.4 (5da689c313, 2019-01-14)">
  <metadata
     id="metadata10">
    <rdf:RDF>
      <cc:Work
         rdf:about="">
        <dc:format>image/svg+xml</dc:format>
        <dc:type
           rdf:resource="http://purl.org/dc/dcmitype/StillImage" />
        <dc:title />
      </cc:Work>
    </rdf:RDF>
  </metadata>
  <defs
     id="defs8" />
  <sodipodi:namedview
     pagecolor="#ffffff"
     bordercolor="#666666"
     borderopacity="1"
     objecttolerance="10"
     gridtolerance="10"
     guidetolerance="10"
     inkscape:pageopacity="0"
     inkscape:pageshadow="2"
     inkscape:window-width="1920"
     inkscape:window-height="1001"
     id="namedview6"
     showgrid="false"
     inkscape:zoom="11.291611"
     inkscape:cx="-7.0636192"
     inkscape:cy="10.472953"
     inkscape:window-x="-9"
     inkscape:window-y="-9"
     inkscape:window-maximized="1"
     inkscape:current-layer="svg4" />
  <path
     style="fill:#616161;fill-opacity:0.39607844;stroke:none"
     d="m 12.5,1.5 c 6.075132,0 11,4.92487 11,11 0,6.07513 -4.924868,11 -11,11 -6.0751322,0 -11,-4.92487 -11,-11 0,-6.07513 4.9248677,-11 11,-11 l -4,3 c -1.6568542,0 -3,1.34315 -3,3 0,1.65685 1.3431458,3 3,3 1.656854,0 3,-1.34315 3,-3 l 3.8,0.4 c -0.620737,0.93937 0.4,2 0.4,2 0,0 -1.38133,-0.44152 -1.9,0.4 -0.481742,0.7816 0.1,1.5 0.1,1.5 0,0 -1.397013,0.6955 -1.8537,1.23159 C 11.301507,13.90587 11,15.5 11,15.5 l -3.5,3 4.4,-2 c 0,0 2.084689,-0.57696 2.6,-1.3 0.657811,-0.92298 0.3,-2.7 0.3,-2.7 0,0 1.004631,0.13289 1.5,-0.8 0.496363,-0.93476 -0.6,-1.8 -0.6,-1.8 0,0 1.637558,0.16968 2.2,-1.1 l 3.1,1.4 c -0.549648,1.31305 0.795975,2.92854 0.1,4.1 -0.566704,0.95387 -2.428342,0.64909 -3,1.6 -0.534089,0.88842 0.453713,2.16797 0,3.1 -0.75877,1.55869 -4.1,3.2 -4.1,3.2 0,0 4.491549,-0.79118 5.8,-2.4 0.690369,-0.84885 0.07532,-2.3017 0.7,-3.2 0.505277,-0.7266 1.592376,-0.61445 2,-1.4 0.924583,-1.78181 0,-6.3 0,-6.3 0,0 -1.376541,0.21035 -1.5,1.3 L 17.9,8.8 c 0,0 0.113474,-1.08701 -0.6,-1.5 -0.750533,-0.43445 -1.380737,-0.17991 -2,0.6 L 11.5,7.5 c 0,-1.65685 -1.343146,-3 -3,-3"
     id="path2"
     inkscape:connector-curvature="0" />
  <path
     inkscape:connector-curvature="0"
     style="fill:#616161;fill-opacity:1;stroke:none"
     d="M 12,1 C 18.075132,1 23,5.92487 23,12 23,18.07513 18.075132,23 12,23 5.9248678,23 1,18.07513 1,12 1,5.92487 5.9248677,1 12,1 L 8,4 C 6.3431458,4 5,5.34315 5,7 c 0,1.65685 1.3431458,3 3,3 1.6568543,0 3,-1.34315 3,-3 l 3.8,0.4 c -0.620737,0.93937 0.4,2 0.4,2 0,0 -1.38133,-0.44152 -1.9,0.4 -0.481742,0.7816 0.1,1.5 0.1,1.5 0,0 -1.397013,0.6955 -1.8537,1.23159 C 10.801507,13.40587 10.5,15 10.5,15 L 7,18 11.4,16 c 0,0 2.084689,-0.57696 2.6,-1.3 0.657811,-0.92298 0.3,-2.7 0.3,-2.7 0,0 1.004631,0.13289 1.5,-0.8 0.496363,-0.93476 -0.6,-1.8 -0.6,-1.8 0,0 1.637558,0.16968 2.2,-1.1 l 3.1,1.4 c -0.549648,1.31305 0.795975,2.92854 0.1,4.1 -0.566704,0.95387 -2.428342,0.64909 -3,1.6 -0.534089,0.88842 0.453713,2.16797 0,3.1 -0.75877,1.55869 -4.1,3.2 -4.1,3.2 0,0 4.491549,-0.79118 5.8,-2.4 0.690369,-0.84885 0.07532,-2.3017 0.7,-3.2 0.505277,-0.7266 1.592376,-0.61445 2,-1.4 0.924583,-1.78181 0,-6.3 0,-6.3 0,0 -1.376541,0.21035 -1.5,1.3 L 17.4,8.3 c 0,0 0.113474,-1.08701 -0.6,-1.5 -0.750533,-0.43445 -1.380737,-0.17991 -2,0.6 L 11,7 C 11,5.34315 9.6568543,4 8,4"
     id="path2-1" />
</svg>
